<svg width="283" height="37" viewBox="0 0 283 37" fill="none" xmlns="http://www.w3.org/2000/svg">
<path d="M111.267 20.545C111.421 20.3322 111.62 20.1553 111.85 20.0267C112.079 19.8981 112.334 19.8208 112.596 19.8C112.858 19.7793 113.121 19.8157 113.368 19.9067C113.615 19.9977 113.839 20.1411 114.025 20.3271C114.211 20.5131 114.354 20.7372 114.445 20.9839C114.536 21.2307 114.573 21.4943 114.552 21.7565C114.531 22.0186 114.454 22.2732 114.325 22.5026C114.197 22.7321 114.02 22.9308 113.807 23.0853C113.467 23.4167 113.012 23.6023 112.537 23.6023C112.062 23.6023 111.607 23.4167 111.267 23.0853C111.098 22.9194 110.965 22.7217 110.873 22.5037C110.782 22.2856 110.735 22.0516 110.735 21.8152C110.735 21.5788 110.782 21.3447 110.873 21.1267C110.965 20.9086 111.098 20.7109 111.267 20.545Z" fill="#26B696" stroke="black" stroke-width="0.3"/>
<path d="M66.3014 16.9355C66.1137 16.3063 65.7547 15.7416 65.2646 15.3046C64.7156 14.8478 64.0647 14.5297 63.367 14.3771C62.4101 14.1632 61.4312 14.0635 60.4508 14.08H52.8179C52.7476 14.0792 52.6779 14.0924 52.6128 14.1189C52.5477 14.1455 52.4885 14.1847 52.4388 14.2344C52.3891 14.2841 52.3499 14.3433 52.3233 14.4084C52.2968 14.4735 52.2836 14.5432 52.2844 14.6135V16.5778C52.2844 16.7386 52.3483 16.8928 52.462 17.0065C52.5756 17.1202 52.7299 17.1841 52.8906 17.1841H60.1053C60.5744 17.1728 61.043 17.2217 61.4997 17.3296C61.8247 17.4028 62.1241 17.5619 62.3667 17.7904C62.5944 18.0364 62.7496 18.3407 62.8153 18.6694C62.913 19.1153 62.9577 19.5711 62.9487 20.0275V22.3253C62.959 22.7837 62.9142 23.2416 62.8153 23.6894C62.7475 24.0138 62.5924 24.3136 62.3667 24.5563C62.1231 24.7846 61.8243 24.9455 61.4997 25.0232C61.0422 25.1256 60.574 25.1725 60.1053 25.1626H53.6C53.1413 25.1717 52.6832 25.1248 52.2359 25.0232C51.912 24.9503 51.613 24.7935 51.3689 24.5685C51.141 24.3265 50.9837 24.0266 50.9142 23.7015C50.8206 23.253 50.7779 22.7954 50.7869 22.3374V19.7547V13.2009V9.4602C50.7869 9.30905 50.7268 9.1641 50.62 9.05722C50.5131 8.95035 50.3681 8.8903 50.217 8.8903H47.6828C47.6031 8.87538 47.521 8.87947 47.4432 8.90224C47.3654 8.92501 47.294 8.96582 47.235 9.02135C47.1759 9.07687 47.1308 9.14556 47.1032 9.22181C47.0757 9.29807 47.0665 9.37974 47.0765 9.4602V23.0407C47.0604 23.8478 47.1646 24.6529 47.3857 25.4294C47.5695 26.0557 47.9243 26.6184 48.4103 27.0542C48.9506 27.5113 49.5967 27.826 50.2897 27.9696C51.2537 28.1771 52.2383 28.2727 53.2241 28.2546H60.469C61.4488 28.2714 62.4272 28.1758 63.3852 27.9696C64.0782 27.826 64.7243 27.5113 65.2646 27.0542C65.7467 26.6162 66.099 26.0541 66.2832 25.4294C66.5043 24.6529 66.6085 23.8478 66.5924 23.0407V19.3242C66.6152 18.5179 66.5171 17.7127 66.3014 16.9355Z" fill="#26B696" stroke="black" stroke-width="0.3"/>
<path d="M150.533 16.596C150.419 16.1016 150.174 15.6471 149.823 15.2803C149.44 14.9203 148.967 14.6709 148.453 14.5589C147.739 14.3988 147.008 14.3255 146.277 14.3406H138.71C137.726 14.3198 136.742 14.4195 135.782 14.6377C135.086 14.7864 134.439 15.1051 133.896 15.5653C133.414 16.0033 133.062 16.5654 132.878 17.1901C132.652 17.9656 132.545 18.7711 132.563 19.5788V23.2952C132.545 24.1029 132.651 24.9086 132.878 25.6839C133.06 26.3095 133.413 26.872 133.896 27.3088C134.436 27.7779 135.084 28.1051 135.782 28.2606C136.744 28.4657 137.727 28.5593 138.71 28.5395H146.81C146.933 28.5395 147.051 28.4911 147.138 28.4049C147.225 28.3187 147.275 28.2015 147.277 28.0787V25.878C147.275 25.7546 147.226 25.6368 147.138 25.5496C147.051 25.4624 146.933 25.4127 146.81 25.4111H139.068C137.952 25.4111 137.201 25.2353 136.813 24.8715C136.595 24.6365 136.429 24.3588 136.325 24.0562C136.22 23.7535 136.18 23.4324 136.206 23.1134V22.5071V20.1972V19.5C136.206 19.4394 136.206 19.3848 136.206 19.3181C136.191 19.0297 136.234 18.7412 136.332 18.4695C136.43 18.1978 136.581 17.9483 136.776 17.7357C137.164 17.378 137.916 17.2022 139.032 17.2022H145.513C145.955 17.1534 146.399 17.2748 146.755 17.5417C147.011 17.8615 147.13 18.2685 147.089 18.6755V19.7728C147.089 19.8886 147.043 19.9996 146.961 20.0815C146.879 20.1633 146.768 20.2093 146.652 20.2093H138.243C138.107 20.2093 137.976 20.2636 137.879 20.3603C137.782 20.4569 137.728 20.588 137.728 20.7247V21.9796C137.728 22.0494 137.742 22.1185 137.769 22.1829C137.796 22.2473 137.835 22.3057 137.885 22.3548C137.934 22.4038 137.993 22.4425 138.058 22.4687C138.123 22.4948 138.192 22.5079 138.262 22.5071H149.265C149.664 22.541 150.061 22.4266 150.381 22.1858C150.516 22.0296 150.618 21.8472 150.679 21.6501C150.741 21.4529 150.761 21.2452 150.739 21.0399V18.5603C150.751 17.8995 150.681 17.2398 150.533 16.596Z" fill="white" stroke="black" stroke-width="0.3"/>
<path d="M129.944 14.34C130.006 14.335 130.068 14.3429 130.128 14.3631C130.187 14.3833 130.241 14.4155 130.287 14.4576C130.333 14.4996 130.37 14.5508 130.395 14.6077C130.421 14.6647 130.434 14.7263 130.435 14.7887V16.9106C130.435 17.0328 130.386 17.15 130.3 17.2364C130.213 17.3228 130.096 17.3714 129.974 17.3714H123.208C122.755 17.3629 122.303 17.4097 121.862 17.5108C121.544 17.5834 121.25 17.7405 121.013 17.9655C120.787 18.2049 120.634 18.5034 120.571 18.8264C120.478 19.2648 120.436 19.7122 120.443 20.1602V27.6901C120.443 27.838 120.385 27.9799 120.28 28.0845C120.176 28.1891 120.034 28.2479 119.886 28.2479H117.406C117.018 28.2479 116.8 28.0599 116.8 27.6901V19.4812C116.781 18.6883 116.884 17.8971 117.103 17.1349C117.281 16.5204 117.627 15.9681 118.103 15.5404C118.638 15.0923 119.272 14.7784 119.952 14.625C120.896 14.4178 121.86 14.3222 122.826 14.34H129.944Z" fill="white" stroke="black" stroke-width="0.3"/>
<path d="M170.665 14.338C170.724 14.3372 170.783 14.3482 170.838 14.3704C170.894 14.3925 170.944 14.4255 170.986 14.4672C171.028 14.5089 171.062 14.5587 171.085 14.6135C171.108 14.6683 171.12 14.7272 171.12 14.7866V16.8115C171.12 16.8715 171.109 16.931 171.087 16.9865C171.064 17.042 171.031 17.0925 170.988 17.1349C170.946 17.1773 170.895 17.2107 170.84 17.2333C170.784 17.2559 170.725 17.2671 170.665 17.2662H159.243C158.855 17.2245 158.466 17.3283 158.151 17.5573C158.044 17.6697 157.962 17.8033 157.91 17.9495C157.858 18.0957 157.837 18.2512 157.848 18.406V18.788C157.839 18.9352 157.862 19.0827 157.914 19.2207C157.966 19.3586 158.047 19.4839 158.151 19.5883C158.466 19.8173 158.855 19.921 159.243 19.8793H167.779C169.198 19.8793 170.204 20.1703 170.81 20.7644C171.127 21.0973 171.372 21.492 171.53 21.9239C171.687 22.3558 171.754 22.8155 171.726 23.2744V24.6931C171.734 25.1978 171.664 25.7008 171.52 26.1845C171.397 26.6073 171.167 26.9914 170.853 27.3C170.506 27.6205 170.092 27.8587 169.64 27.9972C169.029 28.1709 168.396 28.2526 167.761 28.2397H150.597C150.476 28.2382 150.36 28.1889 150.275 28.1027C150.19 28.0164 150.143 27.9001 150.143 27.779V25.7601C150.144 25.6389 150.193 25.5233 150.28 25.4382C150.366 25.3531 150.482 25.3054 150.603 25.3054H166.791C167.18 25.3437 167.57 25.2451 167.894 25.0265C168.01 24.9009 168.098 24.7523 168.152 24.5903C168.207 24.4284 168.226 24.2568 168.209 24.0868V23.4017C168.217 23.2563 168.192 23.1111 168.138 22.9761C168.083 22.841 168 22.7194 167.894 22.6196C167.57 22.4011 167.18 22.3024 166.791 22.3407H158.303C156.884 22.3407 155.874 22.0497 155.272 21.4677C154.952 21.129 154.707 20.7279 154.55 20.2897C154.394 19.8515 154.33 19.3856 154.362 18.9214V17.818C154.357 17.3337 154.425 16.8514 154.562 16.3872C154.688 15.9677 154.92 15.5877 155.235 15.2837C155.581 14.9621 155.996 14.7237 156.448 14.5865C157.057 14.4148 157.688 14.3351 158.321 14.3501L170.665 14.338Z" fill="white" stroke="black" stroke-width="0.3"/>
<path d="M187.563 14.3401C188.525 14.3232 189.485 14.4188 190.425 14.625C191.11 14.776 191.748 15.09 192.286 15.5405C192.762 15.9693 193.11 16.521 193.292 17.135C193.509 17.8978 193.611 18.6885 193.595 19.4813V23.1189C193.611 23.9096 193.508 24.6983 193.292 25.4591C193.11 26.0731 192.762 26.6248 192.286 27.0536C191.752 27.5069 191.111 27.8176 190.425 27.9569C189.484 28.1576 188.524 28.2512 187.563 28.2358H180.397C179.43 28.2526 178.463 28.159 177.517 27.9569C176.847 27.8074 176.223 27.4974 175.698 27.0536C175.226 26.6227 174.881 26.0715 174.698 25.4591C174.482 24.6983 174.38 23.9096 174.395 23.1189V19.4813C174.379 18.6885 174.482 17.8978 174.698 17.135C174.881 16.5226 175.226 15.9714 175.698 15.5405C176.226 15.0989 176.848 14.7855 177.517 14.625C178.463 14.4176 179.429 14.322 180.397 14.3401H187.563ZM177.99 22.4944C177.981 22.9464 178.024 23.398 178.117 23.8403C178.179 24.1585 178.333 24.4515 178.56 24.6831C178.796 24.9103 179.089 25.0695 179.409 25.1438C179.848 25.2455 180.298 25.2923 180.749 25.2833H187.211C187.67 25.293 188.128 25.2462 188.576 25.1438C188.895 25.0695 189.188 24.9103 189.424 24.6831C189.651 24.4504 189.807 24.1581 189.873 23.8403C189.964 23.3977 190.005 22.9462 189.994 22.4944V20.0693C190.004 19.6276 189.964 19.1862 189.873 18.7537C189.804 18.4314 189.649 18.1338 189.424 17.8928C189.195 17.6577 188.898 17.499 188.576 17.4381C188.127 17.3436 187.67 17.3009 187.211 17.3108H180.749C180.299 17.3017 179.849 17.3444 179.409 17.4381C179.086 17.499 178.79 17.6577 178.56 17.8928C178.334 18.1322 178.181 18.4307 178.117 18.7537C178.025 19.1859 177.982 19.6274 177.99 20.0693V22.4944Z" fill="white" stroke="black" stroke-width="0.3"/>
<path d="M199.263 9.48779C199.411 9.48779 199.552 9.54656 199.657 9.65116C199.762 9.75576 199.82 9.89763 199.82 10.0456V27.9305C199.819 28.078 199.76 28.2189 199.655 28.3232C199.551 28.4275 199.41 28.4867 199.263 28.4883H196.777C196.628 28.4867 196.487 28.4266 196.382 28.321C196.278 28.2155 196.219 28.073 196.219 27.9245V10.0456C196.219 9.89763 196.278 9.75576 196.383 9.65116C196.487 9.54656 196.629 9.48779 196.777 9.48779H199.263Z" fill="white" stroke="black" stroke-width="0.3"/>
<path d="M205.321 14.3622C205.691 14.3622 205.879 14.5501 205.879 14.9684V22.2619C205.873 22.7127 205.907 23.1632 205.982 23.6078C206.032 23.9185 206.161 24.2109 206.358 24.4566C206.571 24.6812 206.845 24.8392 207.146 24.9113C207.585 25.0142 208.035 25.061 208.486 25.0507H214.997C215.458 25.0604 215.918 25.0136 216.367 24.9113C216.686 24.8387 216.979 24.6816 217.216 24.4566C217.439 24.2202 217.593 23.9263 217.659 23.6078C217.752 23.1654 217.795 22.7139 217.786 22.2619V14.9442C217.786 14.5501 217.974 14.3379 218.344 14.3379H220.823C221.199 14.3379 221.381 14.5259 221.381 14.9442V23.1531C221.399 23.944 221.297 24.7331 221.078 25.4933C220.9 26.1078 220.553 26.6601 220.078 27.0878C219.541 27.5378 218.902 27.8482 218.216 27.9911C217.276 28.1918 216.316 28.2854 215.355 28.27H208.286C207.32 28.2863 206.356 28.1928 205.412 27.9911C204.74 27.8447 204.116 27.5344 203.593 27.0878C203.117 26.6601 202.771 26.1078 202.593 25.4933C202.371 24.7335 202.267 23.9443 202.284 23.1531V14.9442C202.284 14.7834 202.347 14.6292 202.461 14.5155C202.575 14.4018 202.729 14.3379 202.89 14.3379L205.321 14.3622Z" fill="white" stroke="black" stroke-width="0.3"/>
<path d="M71.9414 14.3622C72.3112 14.3622 72.4991 14.5501 72.4991 14.9684V22.2619C72.493 22.7127 72.5275 23.1632 72.6022 23.6078C72.652 23.9185 72.7815 24.2109 72.9781 24.4566C73.1913 24.6812 73.4651 24.8392 73.7663 24.9113C74.2052 25.0142 74.6554 25.061 75.1061 25.0507H81.6175C82.0782 25.0604 82.5383 25.0136 82.9876 24.9113C83.3063 24.8387 83.5995 24.6816 83.8364 24.4566C84.0599 24.2202 84.2131 23.9263 84.279 23.6078C84.3723 23.1654 84.415 22.7139 84.4063 22.2619V14.9442C84.4063 14.5501 84.5943 14.3379 84.9641 14.3379H87.4437C87.8196 14.3379 88.0015 14.5259 88.0015 14.9442V23.1531C88.0197 23.944 87.9174 24.7331 87.6983 25.4933C87.5203 26.1078 87.1738 26.6601 86.698 27.0878C86.1616 27.5378 85.5222 27.8482 84.8367 27.9911C83.8965 28.1918 82.9365 28.2854 81.9751 28.27H74.906C73.9406 28.2863 72.9765 28.1928 72.0323 27.9911C71.3608 27.8447 70.736 27.5344 70.2135 27.0878C69.7377 26.6601 69.3912 26.1078 69.2132 25.4933C68.9918 24.7335 68.8876 23.9443 68.904 23.1531V14.9442C68.904 14.7834 68.9678 14.6292 69.0815 14.5155C69.1952 14.4018 69.3494 14.3379 69.5102 14.3379L71.9414 14.3622Z" fill="#26B696" stroke="black" stroke-width="0.3"/>
<path d="M238.088 9.48779C238.235 9.48939 238.375 9.54886 238.479 9.65329C238.582 9.75772 238.64 9.89868 238.64 10.0456V12.4706C238.64 12.8587 238.458 13.0769 238.088 13.0769H235.627C235.466 13.0769 235.312 13.013 235.198 12.8993C235.084 12.7856 235.02 12.6314 235.02 12.4706V10.0456C235.02 9.67574 235.214 9.48779 235.627 9.48779H238.088ZM238.088 14.635C238.458 14.635 238.64 14.823 238.64 15.2413V27.9851C238.64 28.133 238.581 28.2749 238.476 28.3795C238.372 28.4841 238.23 28.5429 238.082 28.5429H235.627C235.479 28.5429 235.337 28.4841 235.232 28.3795C235.128 28.2749 235.069 28.133 235.069 27.9851V15.217C235.069 14.823 235.257 14.6108 235.627 14.6108L238.088 14.635Z" fill="white" stroke="black" stroke-width="0.3"/>
<path d="M254.283 14.3401C255.245 14.3232 256.205 14.4188 257.145 14.625C257.83 14.776 258.468 15.09 259.006 15.5405C259.482 15.9693 259.83 16.521 260.012 17.135C260.229 17.8978 260.331 18.6885 260.316 19.4813V23.1189C260.331 23.9096 260.229 24.6983 260.012 25.4591C259.83 26.0731 259.482 26.6248 259.006 27.0536C258.472 27.5069 257.831 27.8176 257.145 27.9569C256.204 28.1576 255.245 28.2512 254.283 28.2358H247.117C246.15 28.2526 245.183 28.159 244.237 27.9569C243.556 27.8121 242.921 27.5018 242.388 27.0536C241.916 26.6227 241.57 26.0715 241.388 25.4591C241.172 24.6983 241.07 23.9096 241.085 23.1189V19.4813C241.069 18.6885 241.171 17.8978 241.388 17.135C241.57 16.5226 241.916 15.9714 242.388 15.5405C242.924 15.0947 243.558 14.7811 244.237 14.625C245.183 14.4176 246.149 14.322 247.117 14.3401H254.283ZM244.71 22.4944C244.7 22.9462 244.74 23.3977 244.831 23.8403C244.898 24.1581 245.054 24.4504 245.28 24.6831C245.516 24.9103 245.81 25.0695 246.129 25.1438C246.568 25.2455 247.018 25.2923 247.469 25.2833H253.932C254.39 25.293 254.848 25.2462 255.296 25.1438C255.615 25.0695 255.908 24.9103 256.144 24.6831C256.371 24.4515 256.525 24.1585 256.587 23.8403C256.68 23.398 256.723 22.9464 256.714 22.4944V20.0693C256.723 19.6274 256.68 19.1859 256.587 18.7537C256.524 18.4307 256.37 18.1322 256.144 17.8928C255.915 17.6577 255.619 17.499 255.296 17.4381C254.847 17.3436 254.39 17.3009 253.932 17.3108H247.469C247.019 17.3017 246.569 17.3444 246.129 17.4381C245.806 17.499 245.51 17.6577 245.28 17.8928C245.055 18.1338 244.9 18.4314 244.831 18.7537C244.741 19.1862 244.7 19.6276 244.71 20.0693V22.4944Z" fill="white" stroke="black" stroke-width="0.3"/>
<path d="M276.23 14.3401C277.192 14.3232 278.152 14.4188 279.092 14.625C279.778 14.7773 280.419 15.0912 280.959 15.5405C281.431 15.9714 281.777 16.5226 281.96 17.135C282.176 17.8978 282.278 18.6885 282.263 19.4813V27.6902C282.263 27.8381 282.204 27.98 282.099 28.0846C281.995 28.1892 281.853 28.2479 281.705 28.2479H279.219C279.071 28.2479 278.93 28.1892 278.825 28.0846C278.72 27.98 278.662 27.8381 278.662 27.6902V20.3422C278.668 19.8956 278.636 19.4493 278.565 19.0084C278.513 18.691 278.377 18.3935 278.17 18.1475C277.952 17.9238 277.674 17.7662 277.37 17.6928C276.939 17.5903 276.497 17.5435 276.055 17.5533H269.319C268.866 17.5445 268.414 17.5913 267.973 17.6928C267.655 17.7678 267.363 17.9245 267.124 18.1475C266.899 18.3876 266.746 18.6858 266.682 19.0084C266.589 19.4468 266.547 19.8942 266.554 20.3422V27.6902C266.554 27.8381 266.496 27.98 266.391 28.0846C266.286 28.1892 266.144 28.2479 265.997 28.2479H263.517C263.123 28.2479 262.911 28.06 262.911 27.6902V19.4813C262.894 18.688 262.998 17.8968 263.22 17.135C263.398 16.5205 263.744 15.9682 264.22 15.5405C264.755 15.0924 265.389 14.7785 266.069 14.625C267.013 14.4176 267.977 14.322 268.943 14.3401H276.23Z" fill="white" stroke="black" stroke-width="0.3"/>
<path d="M227.939 17.9998H232.141C232.264 17.9983 232.382 17.9486 232.469 17.8614C232.556 17.7742 232.606 17.6563 232.607 17.533V15.2049C232.607 15.1358 232.58 15.0695 232.531 15.0206C232.482 14.9717 232.416 14.9442 232.347 14.9442H227.624C227.563 14.945 227.502 14.9337 227.446 14.9109C227.389 14.8881 227.338 14.8543 227.294 14.8114C227.251 14.7686 227.216 14.7175 227.193 14.6612C227.169 14.6049 227.157 14.5445 227.157 14.4835V9.74849C227.157 9.67935 227.13 9.61304 227.081 9.56415C227.032 9.51526 226.966 9.48779 226.896 9.48779H224.38C224.308 9.48779 224.239 9.51654 224.187 9.5677C224.136 9.61886 224.108 9.68826 224.108 9.76061V17.6967C224.108 17.7771 224.139 17.8542 224.196 17.911C224.253 17.9679 224.33 17.9998 224.411 17.9998H227.951H227.939Z" fill="white" stroke="black" stroke-width="0.3"/>
<path d="M232.33 25.1053H229.874C229.572 25.1448 229.265 25.1209 228.973 25.0353C228.681 24.9497 228.41 24.8043 228.177 24.6082C227.85 24.1576 227.697 23.6043 227.746 23.0501V19.1881H224.109V23.0258C224.097 23.802 224.174 24.577 224.339 25.3357C224.464 25.9238 224.747 26.4667 225.158 26.9059C225.6 27.3349 226.148 27.6401 226.746 27.7911C227.564 27.9973 228.406 28.0911 229.25 28.07H232.318C232.438 28.07 232.554 28.0221 232.639 27.9368C232.724 27.8515 232.772 27.7359 232.772 27.6153V25.56C232.773 25.5011 232.762 25.4426 232.74 25.3879C232.719 25.3331 232.686 25.2832 232.645 25.241C232.604 25.1988 232.555 25.1651 232.501 25.1418C232.447 25.1185 232.389 25.1061 232.33 25.1053Z" fill="white" stroke="black" stroke-width="0.3"/>
<path d="M14.7199 23.2077C14.9007 22.8549 15.1778 22.5607 15.519 22.3589C15.8602 22.1572 16.2516 22.0563 16.6478 22.0679H22.6742C23.1121 22.0762 23.5496 22.0335 23.9777 21.9406C24.1755 21.8957 24.359 21.8019 24.5112 21.6677C24.6389 21.5215 24.7248 21.3434 24.7597 21.1524C24.8424 20.7291 24.881 20.2984 24.8749 19.8671V17.3268C24.8824 16.8915 24.8438 16.4566 24.7597 16.0294C24.7221 15.8411 24.6365 15.6657 24.5112 15.5202C24.3583 15.3882 24.1749 15.2965 23.9777 15.2534C23.5501 15.1571 23.1123 15.1143 22.6742 15.1261H12.1251C11.9337 15.1261 11.7502 15.2021 11.6149 15.3374C11.4796 15.4727 11.4036 15.6562 11.4036 15.8475V26.4633C11.4036 26.6997 11.3097 26.9264 11.1426 27.0935C10.9754 27.2607 10.7488 27.3546 10.5124 27.3546H6.50494C6.26857 27.3546 6.04189 27.2607 5.87475 27.0935C5.70761 26.9264 5.61372 26.6997 5.61372 26.4633V1.1091C4.31313 1.36728 3.14236 2.06858 2.30102 3.09344C1.45969 4.11831 0.999879 5.40326 1 6.72923V30.2707C1 31.7902 1.60362 33.2475 2.67806 34.3219C3.7525 35.3964 5.20976 36 6.72926 36H25.5903L15.114 25.4387C14.8244 25.154 14.6308 24.7861 14.5602 24.3862C14.4895 23.9863 14.5454 23.5743 14.7199 23.2077Z" fill="#26B696" stroke="black" stroke-width="0.3"/>
<path d="M30.2707 1H11.4036V9.17859C11.4035 9.26082 11.4201 9.34222 11.4525 9.41782C11.4848 9.49343 11.5322 9.56166 11.5917 9.61837C11.6513 9.67508 11.7218 9.71909 11.7989 9.74771C11.8759 9.77633 11.958 9.78897 12.0402 9.78486H23.0743C24.2334 9.76621 25.3908 9.88013 26.524 10.1244C27.4458 10.316 28.306 10.7325 29.0279 11.3369C29.6907 11.9355 30.1753 12.7055 30.4284 13.5619C30.7017 14.5114 30.8324 15.4962 30.8164 16.4842V20.5947C30.8324 21.5826 30.7017 22.5674 30.4284 23.5169C30.1743 24.3712 29.6897 25.1389 29.0279 25.7358C28.3088 26.3471 27.4514 26.7737 26.53 26.9787C26.0462 27.0816 25.5561 27.1525 25.0629 27.1909L33.0475 35.2785C33.9429 34.7846 34.6892 34.0593 35.2086 33.1784C35.7279 32.2975 36.0013 31.2933 36 30.2707V6.72926C36 5.20976 35.3964 3.7525 34.3219 2.67806C33.2475 1.60362 31.7902 1 30.2707 1V1Z" fill="#26B696" stroke="black" stroke-width="0.3"/>
<path d="M103.974 25.7701L103.974 25.77C106.122 21.9829 108.417 17.995 109.041 17.0187C109.435 16.4 109.72 15.9151 109.896 15.5382C110.075 15.1525 110.123 14.9135 110.091 14.7701C110.076 14.7066 110.045 14.6597 109.993 14.6213C109.938 14.5801 109.852 14.5446 109.725 14.5208C109.467 14.4726 109.086 14.4795 108.561 14.528L108.56 14.5281C108.142 14.5645 107.837 14.6059 107.561 14.716C107.29 14.8245 107.038 15.0042 106.742 15.335C106.139 16.0071 105.384 17.2649 103.947 19.7011C103.134 21.1118 102.344 22.3897 101.727 23.3159C101.419 23.7787 101.152 24.1558 100.946 24.4184C100.844 24.5492 100.754 24.6548 100.68 24.729C100.643 24.7658 100.606 24.7985 100.572 24.8229C100.544 24.8426 100.491 24.8766 100.426 24.8766C100.385 24.8766 100.353 24.8625 100.335 24.853C100.315 24.8425 100.296 24.8296 100.281 24.8173C100.251 24.7929 100.218 24.7604 100.185 24.724C100.118 24.6504 100.035 24.5454 99.9385 24.4149C99.7453 24.1529 99.491 23.7763 99.1947 23.3136C98.6016 22.3877 97.8358 21.1099 97.0465 19.699C95.6568 17.238 94.9259 15.9815 94.3305 15.3167C94.038 14.9901 93.7853 14.8151 93.5096 14.7101C93.2286 14.6031 92.9139 14.5646 92.4829 14.5281L92.4824 14.528C91.9392 14.48 91.5148 14.4935 91.2319 14.5555C91.0897 14.5867 90.9953 14.6276 90.9398 14.6694C90.8885 14.7079 90.878 14.7398 90.878 14.7673C90.878 14.7672 90.878 14.7672 90.878 14.7673C90.8781 14.7679 90.8783 14.7724 90.88 14.7816C90.8818 14.7918 90.885 14.8054 90.8898 14.8227C90.8995 14.8575 90.9147 14.9024 90.936 14.9579C90.9785 15.0687 91.042 15.2136 91.1248 15.3891C91.2902 15.7399 91.5288 16.2049 91.8202 16.7491C92.4027 17.8369 93.1929 19.235 94.0224 20.6551C94.8519 22.0751 95.7199 23.5159 96.4577 24.6893C97.1986 25.8673 97.8008 26.7636 98.1017 27.1049C98.3145 27.3454 98.4839 27.5393 98.5963 27.7113C98.711 27.8866 98.7778 28.0555 98.7661 28.2459C98.7547 28.4307 98.6704 28.6121 98.5385 28.8161C98.4064 29.0204 98.2138 29.2658 97.9651 29.5789C97.3754 30.3773 96.4768 30.9494 95.6963 30.9494C95.216 30.9494 95.001 31.015 94.8826 31.1654C94.8206 31.2442 94.7731 31.3609 94.7424 31.5418C94.7118 31.7227 94.6998 31.9555 94.6998 32.2569C94.6998 32.5974 94.709 32.8461 94.7429 33.0315C94.7763 33.2146 94.8304 33.3169 94.9056 33.3831C94.9834 33.4515 95.1053 33.5004 95.3158 33.5293C95.5259 33.5581 95.8028 33.5643 96.174 33.5643C96.9729 33.5643 97.5904 33.5305 98.1372 33.3721C98.6788 33.2153 99.1591 32.9337 99.6753 32.4235C100.72 31.391 101.891 29.446 103.974 25.7701Z" fill="#26B696" stroke="black" stroke-width="0.3"/>
</svg>
